<svg width="996" height="216" viewBox="0 0 996 216" fill="none" xmlns="http://www.w3.org/2000/svg">
<path d="M52.71 7.285C49.765 4.3375 44.625 4.3375 41.68 7.285L20.7325 28.2325C20.5001 28.4645 20.3158 28.74 20.19 29.0433C20.0642 29.3465 19.9995 29.6717 19.9995 30C19.9995 30.3283 20.0642 30.6534 20.19 30.9567C20.3158 31.26 20.5001 31.5355 20.7325 31.7675L28.2325 39.2675C28.4641 39.5005 28.7395 39.6853 29.0429 39.8115C29.3462 39.9376 29.6715 40.0026 30 40.0026C30.3285 40.0026 30.6538 39.9376 30.9571 39.8115C31.2605 39.6853 31.5359 39.5005 31.7675 39.2675L52.715 18.32C54.1765 16.8554 54.997 14.8706 54.996 12.8015C54.9951 10.7324 54.1729 8.74826 52.71 7.285ZM49.18 14.785L30 33.965L26.035 30L45.215 10.82C45.749 10.3094 46.4597 10.0249 47.1985 10.0258C47.9373 10.0267 48.6473 10.3131 49.18 10.825C49.7033 11.3511 49.9971 12.0629 49.9971 12.805C49.9971 13.547 49.7033 14.2589 49.18 14.785ZM20 37.5C16.8375 35.915 11.25 37.5 11.25 42.5C11.25 45.4925 12.5 47.5 7.5 50C7.5 50 15.625 55.625 21.25 50C24.435 46.815 24.985 40 20 37.5Z" fill="#3A3EA3"/>
<path d="M598.71 85.285C595.765 82.3375 590.625 82.3375 587.68 85.285L566.733 106.232C566.5 106.464 566.316 106.74 566.19 107.043C566.064 107.347 565.999 107.672 565.999 108C565.999 108.328 566.064 108.653 566.19 108.957C566.316 109.26 566.5 109.536 566.733 109.767L574.233 117.267C574.464 117.5 574.74 117.685 575.043 117.811C575.346 117.938 575.671 118.003 576 118.003C576.329 118.003 576.654 117.938 576.957 117.811C577.26 117.685 577.536 117.5 577.767 117.267L598.715 96.32C600.177 94.8554 600.997 92.8706 600.996 90.8015C600.995 88.7324 600.173 86.7483 598.71 85.285ZM595.18 92.785L576 111.965L572.035 108L591.215 88.82C591.749 88.3094 592.46 88.0249 593.199 88.0258C593.937 88.0267 594.647 88.3131 595.18 88.825C595.703 89.3511 595.997 90.0629 595.997 90.805C595.997 91.547 595.703 92.2589 595.18 92.785ZM566 115.5C562.837 113.915 557.25 115.5 557.25 120.5C557.25 123.492 558.5 125.5 553.5 128C553.5 128 561.625 133.625 567.25 128C570.435 124.815 570.985 118 566 115.5Z" fill="#3A3EA3"/>
<path d="M910.71 163.285C907.765 160.337 902.625 160.337 899.68 163.285L878.733 184.232C878.5 184.464 878.316 184.74 878.19 185.043C878.064 185.347 877.999 185.672 877.999 186C877.999 186.328 878.064 186.653 878.19 186.957C878.316 187.26 878.5 187.536 878.733 187.767L886.233 195.267C886.464 195.5 886.74 195.685 887.043 195.811C887.346 195.938 887.671 196.003 888 196.003C888.329 196.003 888.654 195.938 888.957 195.811C889.26 195.685 889.536 195.5 889.767 195.267L910.715 174.32C912.177 172.855 912.997 170.871 912.996 168.801C912.995 166.732 912.173 164.748 910.71 163.285ZM907.18 170.785L888 189.965L884.035 186L903.215 166.82C903.749 166.309 904.46 166.025 905.199 166.026C905.937 166.027 906.647 166.313 907.18 166.825C907.703 167.351 907.997 168.063 907.997 168.805C907.997 169.547 907.703 170.259 907.18 170.785ZM878 193.5C874.837 191.915 869.25 193.5 869.25 198.5C869.25 201.492 870.5 203.5 865.5 206C865.5 206 873.625 211.625 879.25 206C882.435 202.815 882.985 196 878 193.5Z" fill="#3A3EA3"/>
<path d="M173.5 52.5C177.642 52.5 181 49.1421 181 45C181 40.8579 177.642 37.5 173.5 37.5C169.358 37.5 166 40.8579 166 45C166 49.1421 169.358 52.5 173.5 52.5Z" stroke="#3A3EA3" stroke-width="2" stroke-linecap="round" stroke-linejoin="round"/>
<path d="M193.5 37.5L173.5 7.5M178.5 37.5L186 26.25M198.5 7.5L191 18.75" stroke="#3A3EA3" stroke-width="2" stroke-linecap="round" stroke-linejoin="round"/>
<path d="M198.5 52.5C202.642 52.5 206 49.1421 206 45C206 40.8579 202.642 37.5 198.5 37.5C194.358 37.5 191 40.8579 191 45C191 49.1421 194.358 52.5 198.5 52.5Z" stroke="#3A3EA3" stroke-width="2" stroke-linecap="round" stroke-linejoin="round"/>
<path d="M719.5 130.5C723.642 130.5 727 127.142 727 123C727 118.858 723.642 115.5 719.5 115.5C715.358 115.5 712 118.858 712 123C712 127.142 715.358 130.5 719.5 130.5Z" stroke="#3A3EA3" stroke-width="2" stroke-linecap="round" stroke-linejoin="round"/>
<path d="M739.5 115.5L719.5 85.5M724.5 115.5L732 104.25M744.5 85.5L737 96.75" stroke="#3A3EA3" stroke-width="2" stroke-linecap="round" stroke-linejoin="round"/>
<path d="M744.5 130.5C748.642 130.5 752 127.142 752 123C752 118.858 748.642 115.5 744.5 115.5C740.358 115.5 737 118.858 737 123C737 127.142 740.358 130.5 744.5 130.5Z" stroke="#3A3EA3" stroke-width="2" stroke-linecap="round" stroke-linejoin="round"/>
<path d="M485.5 208.5C489.642 208.5 493 205.142 493 201C493 196.858 489.642 193.5 485.5 193.5C481.358 193.5 478 196.858 478 201C478 205.142 481.358 208.5 485.5 208.5Z" stroke="#3A3EA3" stroke-width="2" stroke-linecap="round" stroke-linejoin="round"/>
<path d="M505.5 193.5L485.5 163.5M490.5 193.5L498 182.25M510.5 163.5L503 174.75" stroke="#3A3EA3" stroke-width="2" stroke-linecap="round" stroke-linejoin="round"/>
<path d="M510.5 208.5C514.642 208.5 518 205.142 518 201C518 196.858 514.642 193.5 510.5 193.5C506.358 193.5 503 196.858 503 201C503 205.142 506.358 208.5 510.5 208.5Z" stroke="#3A3EA3" stroke-width="2" stroke-linecap="round" stroke-linejoin="round"/>
<path d="M119.25 3.74999C116.99 3.74948 114.759 4.25976 112.723 5.24269C110.688 6.22562 108.901 7.65579 107.496 9.42633C106.092 11.1969 105.105 13.262 104.61 15.4674C104.116 17.6729 104.126 19.9615 104.64 22.1625L85.6988 41.7937C84.3592 43.2147 83.6313 45.1049 83.6718 47.0573C83.7124 49.0097 84.5182 50.8681 85.9157 52.2321C87.3132 53.5962 89.1905 54.3567 91.1433 54.35C93.0961 54.3433 94.9682 53.5698 96.3563 52.1962L115.133 33.1762C117.528 33.8582 120.056 33.9331 122.488 33.3941C124.921 32.8551 127.18 31.7191 129.064 30.0887C130.947 28.4583 132.395 26.3847 133.277 24.055C134.159 21.7253 134.447 19.2126 134.115 16.7437C134.069 16.3966 133.927 16.0693 133.704 15.799C133.482 15.5286 133.188 15.3259 132.856 15.2139C132.524 15.1019 132.168 15.085 131.827 15.1651C131.486 15.2453 131.175 15.4193 130.928 15.6675L123 23.5987L114.401 15L122.333 7.06874C122.581 6.82169 122.755 6.51009 122.835 6.16924C122.915 5.82838 122.898 5.47189 122.786 5.14013C122.674 4.80837 122.471 4.51461 122.201 4.29212C121.931 4.06962 121.603 3.92729 121.256 3.88124C120.59 3.79286 119.918 3.74901 119.246 3.74999H119.25Z" fill="#3A3EA3"/>
<path d="M665.25 81.75C662.99 81.7495 660.759 82.2598 658.723 83.2427C656.688 84.2256 654.901 85.6558 653.496 87.4263C652.091 89.1969 651.105 91.262 650.61 93.4674C650.116 95.6729 650.126 97.9615 650.64 100.162L631.699 119.794C630.359 121.215 629.631 123.105 629.672 125.057C629.712 127.01 630.518 128.868 631.916 130.232C633.313 131.596 635.19 132.357 637.143 132.35C639.096 132.343 640.968 131.57 642.356 130.196L661.132 111.176C663.528 111.858 666.056 111.933 668.488 111.394C670.92 110.855 673.18 109.719 675.064 108.089C676.947 106.458 678.395 104.385 679.277 102.055C680.159 99.7253 680.447 97.2126 680.115 94.7437C680.069 94.3966 679.927 94.0693 679.704 93.799C679.482 93.5286 679.188 93.3259 678.856 93.2139C678.524 93.1019 678.168 93.085 677.827 93.1651C677.486 93.2453 677.175 93.4193 676.927 93.6675L669 101.599L660.401 93L668.332 85.0687C668.581 84.8217 668.755 84.5101 668.835 84.1692C668.915 83.8284 668.898 83.4719 668.786 83.1401C668.674 82.8084 668.471 82.5146 668.201 82.2921C667.931 82.0696 667.603 81.9273 667.256 81.8812C666.59 81.7929 665.918 81.749 665.246 81.75H665.25Z" fill="#3A3EA3"/>
<path d="M977.25 159.75C974.99 159.749 972.759 160.26 970.723 161.243C968.688 162.226 966.901 163.656 965.496 165.426C964.091 167.197 963.105 169.262 962.61 171.467C962.116 173.673 962.126 175.962 962.64 178.163L943.699 197.794C942.359 199.215 941.631 201.105 941.672 203.057C941.712 205.01 942.518 206.868 943.916 208.232C945.313 209.596 947.19 210.357 949.143 210.35C951.096 210.343 952.968 209.57 954.356 208.196L973.133 189.176C975.528 189.858 978.056 189.933 980.488 189.394C982.92 188.855 985.18 187.719 987.064 186.089C988.947 184.458 990.395 182.385 991.277 180.055C992.159 177.725 992.447 175.213 992.115 172.744C992.069 172.397 991.927 172.069 991.704 171.799C991.482 171.529 991.188 171.326 990.856 171.214C990.524 171.102 990.168 171.085 989.827 171.165C989.486 171.245 989.175 171.419 988.928 171.668L981 179.599L972.401 171L980.333 163.069C980.581 162.822 980.755 162.51 980.835 162.169C980.915 161.828 980.898 161.472 980.786 161.14C980.674 160.808 980.471 160.515 980.201 160.292C979.931 160.07 979.603 159.927 979.256 159.881C978.59 159.793 977.918 159.749 977.246 159.75H977.25Z" fill="#3A3EA3"/>
<path d="M274.702 26.7975C274.877 26.9717 275.016 27.1786 275.11 27.4064C275.205 27.6342 275.253 27.8784 275.253 28.125C275.253 28.3716 275.205 28.6158 275.11 28.8436C275.016 29.0714 274.877 29.2783 274.702 29.4525L263.452 40.7025C263.278 40.8771 263.071 41.0156 262.844 41.1102C262.616 41.2047 262.372 41.2533 262.125 41.2533C261.878 41.2533 261.634 41.2047 261.406 41.1102C261.179 41.0156 260.972 40.8771 260.797 40.7025L255.172 35.0775C254.998 34.9032 254.86 34.6962 254.766 34.4684C254.671 34.2407 254.623 33.9965 254.623 33.75C254.623 33.5035 254.671 33.2593 254.766 33.0316C254.86 32.8038 254.998 32.5968 255.172 32.4225C255.525 32.0704 256.002 31.8726 256.5 31.8726C256.747 31.8726 256.991 31.9212 257.218 32.0155C257.446 32.1099 257.653 32.2482 257.827 32.4225L262.125 36.7237L272.047 26.7975C272.222 26.6229 272.429 26.4843 272.656 26.3898C272.884 26.2953 273.128 26.2466 273.375 26.2466C273.622 26.2466 273.866 26.2953 274.094 26.3898C274.321 26.4843 274.528 26.6229 274.702 26.7975Z" fill="#3A3EA3"/>
<path d="M247.125 0C247.622 0 248.099 0.197544 248.451 0.549175C248.802 0.900806 249 1.37772 249 1.875V3.75H279V1.875C279 1.37772 279.198 0.900806 279.549 0.549175C279.901 0.197544 280.378 0 280.875 0C281.372 0 281.849 0.197544 282.201 0.549175C282.552 0.900806 282.75 1.37772 282.75 1.875V3.75H286.5C288.489 3.75 290.397 4.54018 291.803 5.9467C293.21 7.35322 294 9.26088 294 11.25V52.5C294 54.4891 293.21 56.3968 291.803 57.8033C290.397 59.2098 288.489 60 286.5 60H241.5C239.511 60 237.603 59.2098 236.197 57.8033C234.79 56.3968 234 54.4891 234 52.5V11.25C234 9.26088 234.79 7.35322 236.197 5.9467C237.603 4.54018 239.511 3.75 241.5 3.75H245.25V1.875C245.25 1.37772 245.448 0.900806 245.799 0.549175C246.151 0.197544 246.628 0 247.125 0V0ZM237.75 15V52.5C237.75 53.4946 238.145 54.4484 238.848 55.1516C239.552 55.8549 240.505 56.25 241.5 56.25H286.5C287.495 56.25 288.448 55.8549 289.152 55.1516C289.855 54.4484 290.25 53.4946 290.25 52.5V15H237.75Z" fill="#3A3EA3"/>
<path d="M820.703 104.797C820.877 104.972 821.016 105.179 821.11 105.406C821.205 105.634 821.253 105.878 821.253 106.125C821.253 106.372 821.205 106.616 821.11 106.844C821.016 107.071 820.877 107.278 820.703 107.452L809.453 118.702C809.278 118.877 809.071 119.016 808.844 119.11C808.616 119.205 808.372 119.253 808.125 119.253C807.878 119.253 807.634 119.205 807.406 119.11C807.179 119.016 806.972 118.877 806.798 118.702L801.173 113.077C800.998 112.903 800.86 112.696 800.766 112.468C800.671 112.241 800.623 111.997 800.623 111.75C800.623 111.503 800.671 111.259 800.766 111.032C800.86 110.804 800.998 110.597 801.173 110.422C801.525 110.07 802.002 109.873 802.5 109.873C802.747 109.873 802.991 109.921 803.218 110.016C803.446 110.11 803.653 110.248 803.828 110.422L808.125 114.724L818.048 104.797C818.222 104.623 818.429 104.484 818.656 104.39C818.884 104.295 819.128 104.247 819.375 104.247C819.622 104.247 819.866 104.295 820.094 104.39C820.321 104.484 820.528 104.623 820.703 104.797Z" fill="#3A3EA3"/>
<path d="M793.125 78C793.622 78 794.099 78.1975 794.451 78.5492C794.802 78.9008 795 79.3777 795 79.875V81.75H825V79.875C825 79.3777 825.198 78.9008 825.549 78.5492C825.901 78.1975 826.378 78 826.875 78C827.372 78 827.849 78.1975 828.201 78.5492C828.552 78.9008 828.75 79.3777 828.75 79.875V81.75H832.5C834.489 81.75 836.397 82.5402 837.803 83.9467C839.21 85.3532 840 87.2609 840 89.25V130.5C840 132.489 839.21 134.397 837.803 135.803C836.397 137.21 834.489 138 832.5 138H787.5C785.511 138 783.603 137.21 782.197 135.803C780.79 134.397 780 132.489 780 130.5V89.25C780 87.2609 780.79 85.3532 782.197 83.9467C783.603 82.5402 785.511 81.75 787.5 81.75H791.25V79.875C791.25 79.3777 791.448 78.9008 791.799 78.5492C792.151 78.1975 792.628 78 793.125 78V78ZM783.75 93V130.5C783.75 131.495 784.145 132.448 784.848 133.152C785.552 133.855 786.505 134.25 787.5 134.25H832.5C833.495 134.25 834.448 133.855 835.152 133.152C835.855 132.448 836.25 131.495 836.25 130.5V93H783.75Z" fill="#3A3EA3"/>
<path d="M586.703 182.797C586.877 182.972 587.016 183.179 587.11 183.406C587.205 183.634 587.253 183.878 587.253 184.125C587.253 184.372 587.205 184.616 587.11 184.844C587.016 185.071 586.877 185.278 586.703 185.452L575.453 196.702C575.278 196.877 575.071 197.016 574.844 197.11C574.616 197.205 574.372 197.253 574.125 197.253C573.878 197.253 573.634 197.205 573.406 197.11C573.179 197.016 572.972 196.877 572.798 196.702L567.173 191.077C566.998 190.903 566.86 190.696 566.766 190.468C566.671 190.241 566.623 189.997 566.623 189.75C566.623 189.503 566.671 189.259 566.766 189.032C566.86 188.804 566.998 188.597 567.173 188.422C567.525 188.07 568.002 187.873 568.5 187.873C568.747 187.873 568.991 187.921 569.218 188.016C569.446 188.11 569.653 188.248 569.828 188.422L574.125 192.724L584.048 182.797C584.222 182.623 584.429 182.484 584.656 182.39C584.884 182.295 585.128 182.247 585.375 182.247C585.622 182.247 585.866 182.295 586.094 182.39C586.321 182.484 586.528 182.623 586.703 182.797Z" fill="#3A3EA3"/>
<path d="M559.125 156C559.622 156 560.099 156.198 560.451 156.549C560.802 156.901 561 157.378 561 157.875V159.75H591V157.875C591 157.378 591.198 156.901 591.549 156.549C591.901 156.198 592.378 156 592.875 156C593.372 156 593.849 156.198 594.201 156.549C594.552 156.901 594.75 157.378 594.75 157.875V159.75H598.5C600.489 159.75 602.397 160.54 603.803 161.947C605.21 163.353 606 165.261 606 167.25V208.5C606 210.489 605.21 212.397 603.803 213.803C602.397 215.21 600.489 216 598.5 216H553.5C551.511 216 549.603 215.21 548.197 213.803C546.79 212.397 546 210.489 546 208.5V167.25C546 165.261 546.79 163.353 548.197 161.947C549.603 160.54 551.511 159.75 553.5 159.75H557.25V157.875C557.25 157.378 557.448 156.901 557.799 156.549C558.151 156.198 558.628 156 559.125 156V156ZM549.75 171V208.5C549.75 209.495 550.145 210.448 550.848 211.152C551.552 211.855 552.505 212.25 553.5 212.25H598.5C599.495 212.25 600.448 211.855 601.152 211.152C601.855 210.448 602.25 209.495 602.25 208.5V171H549.75Z" fill="#3A3EA3"/>
<path d="M359.5 55H324.5C323.837 55 323.201 54.7366 322.732 54.2678C322.263 53.7989 322 53.163 322 52.5V32.5H317L340.23 9.26749C340.462 9.03505 340.738 8.85065 341.041 8.72484C341.345 8.59903 341.67 8.53427 341.999 8.53427C342.327 8.53427 342.653 8.59903 342.956 8.72484C343.26 8.85065 343.535 9.03505 343.767 9.26749L367 32.5H362V52.5C362 53.163 361.737 53.7989 361.268 54.2678C360.799 54.7366 360.163 55 359.5 55ZM337 37.5H347V50H357V29.57L342 14.57L327 29.57V50H337V37.5Z" fill="#3A3EA3"/>
<path d="M905.5 133H870.5C869.837 133 869.201 132.737 868.732 132.268C868.263 131.799 868 131.163 868 130.5V110.5H863L886.23 87.2675C886.462 87.035 886.738 86.8506 887.041 86.7248C887.345 86.599 887.67 86.5343 887.999 86.5343C888.327 86.5343 888.653 86.599 888.956 86.7248C889.26 86.8506 889.535 87.035 889.767 87.2675L913 110.5H908V130.5C908 131.163 907.737 131.799 907.268 132.268C906.799 132.737 906.163 133 905.5 133ZM883 115.5H893V128H903V107.57L888 92.57L873 107.57V128H883V115.5Z" fill="#3A3EA3"/>
<path d="M671.5 211H636.5C635.837 211 635.201 210.737 634.732 210.268C634.263 209.799 634 209.163 634 208.5V188.5H629L652.23 165.268C652.462 165.035 652.738 164.851 653.041 164.725C653.345 164.599 653.67 164.534 653.999 164.534C654.327 164.534 654.653 164.599 654.956 164.725C655.26 164.851 655.535 165.035 655.767 165.268L679 188.5H674V208.5C674 209.163 673.737 209.799 673.268 210.268C672.799 210.737 672.163 211 671.5 211ZM649 193.5H659V206H669V185.57L654 170.57L639 185.57V206H649V193.5Z" fill="#3A3EA3"/>
<path d="M498 5C484.215 5 473 16.215 473 30C473 43.785 484.215 55 498 55C511.785 55 523 43.785 523 30C523 16.215 511.785 5 498 5ZM498 50C486.973 50 478 41.0275 478 30C478 18.9725 486.973 10 498 10C509.028 10 518 18.9725 518 30C518 41.0275 509.028 50 498 50Z" fill="#3A3EA3"/>
<path d="M505.072 37.07C504.159 37.9808 503.079 38.7089 501.892 39.215C499.756 40.1171 497.372 40.2488 495.149 39.5875C492.926 38.9263 491.001 37.5132 489.705 35.59L485.56 38.3875C486.641 39.9828 488.016 41.3574 489.612 42.4375C491.237 43.5358 493.061 44.3029 494.982 44.695C496.974 45.1013 499.028 45.1013 501.02 44.695C502.941 44.3024 504.766 43.5353 506.39 42.4375C507.172 41.9075 507.92 41.2925 508.605 40.61C509.285 39.9325 509.905 39.1825 510.44 38.3875L506.295 35.59C505.936 36.1212 505.526 36.6168 505.072 37.07Z" fill="#3A3EA3"/>
<path d="M489.25 30C491.321 30 493 28.3211 493 26.25C493 24.1789 491.321 22.5 489.25 22.5C487.179 22.5 485.5 24.1789 485.5 26.25C485.5 28.3211 487.179 30 489.25 30Z" fill="#3A3EA3"/>
<path d="M506.733 29.965C508.794 29.965 510.465 28.2939 510.465 26.2325C510.465 24.1711 508.794 22.5 506.733 22.5C504.671 22.5 503 24.1711 503 26.2325C503 28.2939 504.671 29.965 506.733 29.965Z" fill="#3A3EA3"/>
<path d="M30 83C16.215 83 5 94.215 5 108C5 121.785 16.215 133 30 133C43.785 133 55 121.785 55 108C55 94.215 43.785 83 30 83ZM30 128C18.9725 128 10 119.028 10 108C10 96.9725 18.9725 88 30 88C41.0275 88 50 96.9725 50 108C50 119.028 41.0275 128 30 128Z" fill="#3A3EA3"/>
<path d="M37.0725 115.07C36.1587 115.981 35.0793 116.709 33.8925 117.215C31.7557 118.117 29.372 118.249 27.1488 117.588C24.9257 116.926 23.0014 115.513 21.705 113.59L17.56 116.387C18.6411 117.983 20.0165 119.357 21.6125 120.437C23.2366 121.536 25.0615 122.303 26.9825 122.695C28.9745 123.101 31.028 123.101 33.02 122.695C34.9409 122.302 36.7656 121.535 38.39 120.437C39.1725 119.907 39.92 119.292 40.605 118.61C41.285 117.932 41.905 117.182 42.44 116.387L38.295 113.59C37.9357 114.121 37.5263 114.617 37.0725 115.07Z" fill="#3A3EA3"/>
<path d="M21.25 108C23.3211 108 25 106.321 25 104.25C25 102.179 23.3211 100.5 21.25 100.5C19.1789 100.5 17.5 102.179 17.5 104.25C17.5 106.321 19.1789 108 21.25 108Z" fill="#3A3EA3"/>
<path d="M38.7325 107.965C40.7939 107.965 42.465 106.294 42.465 104.233C42.465 102.171 40.7939 100.5 38.7325 100.5C36.6711 100.5 35 102.171 35 104.233C35 106.294 36.6711 107.965 38.7325 107.965Z" fill="#3A3EA3"/>
<path d="M342 161C328.215 161 317 172.215 317 186C317 199.785 328.215 211 342 211C355.785 211 367 199.785 367 186C367 172.215 355.785 161 342 161ZM342 206C330.973 206 322 197.028 322 186C322 174.973 330.973 166 342 166C353.028 166 362 174.973 362 186C362 197.028 353.028 206 342 206Z" fill="#3A3EA3"/>
<path d="M349.072 193.07C348.159 193.981 347.079 194.709 345.892 195.215C343.756 196.117 341.372 196.249 339.149 195.588C336.926 194.926 335.001 193.513 333.705 191.59L329.56 194.387C330.641 195.983 332.016 197.357 333.612 198.437C335.237 199.536 337.061 200.303 338.982 200.695C340.974 201.101 343.028 201.101 345.02 200.695C346.941 200.302 348.766 199.535 350.39 198.437C351.172 197.907 351.92 197.292 352.605 196.61C353.285 195.932 353.905 195.182 354.44 194.387L350.295 191.59C349.936 192.121 349.526 192.617 349.072 193.07Z" fill="#3A3EA3"/>
<path d="M333.25 186C335.321 186 337 184.321 337 182.25C337 180.179 335.321 178.5 333.25 178.5C331.179 178.5 329.5 180.179 329.5 182.25C329.5 184.321 331.179 186 333.25 186Z" fill="#3A3EA3"/>
<path d="M350.733 185.965C352.794 185.965 354.465 184.294 354.465 182.233C354.465 180.171 352.794 178.5 350.733 178.5C348.671 178.5 347 180.171 347 182.233C347 184.294 348.671 185.965 350.733 185.965Z" fill="#3A3EA3"/>
<path d="M553.5 15C553.5 13.0109 554.29 11.1032 555.697 9.6967C557.103 8.29018 559.011 7.5 561 7.5H591C592.989 7.5 594.897 8.29018 596.303 9.6967C597.71 11.1032 598.5 13.0109 598.5 15V37.5C598.5 39.4891 597.71 41.3968 596.303 42.8033C594.897 44.2098 592.989 45 591 45H583.5V46.875C583.5 47.3723 583.698 47.8492 584.049 48.2008C584.401 48.5525 584.878 48.75 585.375 48.75H587.25C587.747 48.75 588.224 48.9475 588.576 49.2992C588.927 49.6508 589.125 50.1277 589.125 50.625C589.125 51.1223 588.927 51.5992 588.576 51.9508C588.224 52.3025 587.747 52.5 587.25 52.5H564.75C564.253 52.5 563.776 52.3025 563.424 51.9508C563.073 51.5992 562.875 51.1223 562.875 50.625C562.875 50.1277 563.073 49.6508 563.424 49.2992C563.776 48.9475 564.253 48.75 564.75 48.75H566.625C567.122 48.75 567.599 48.5525 567.951 48.2008C568.302 47.8492 568.5 47.3723 568.5 46.875V45H561C559.011 45 557.103 44.2098 555.697 42.8033C554.29 41.3968 553.5 39.4891 553.5 37.5V15ZM557.25 37.5C557.25 38.4946 557.645 39.4484 558.348 40.1516C559.052 40.8549 560.005 41.25 561 41.25H591C591.995 41.25 592.948 40.8549 593.652 40.1516C594.355 39.4484 594.75 38.4946 594.75 37.5H557.25ZM594.75 33.75V15C594.75 14.0054 594.355 13.0516 593.652 12.3483C592.948 11.6451 591.995 11.25 591 11.25H561C560.005 11.25 559.052 11.6451 558.348 12.3483C557.645 13.0516 557.25 14.0054 557.25 15V33.75H594.75ZM579.75 46.875V45H572.25V46.875C572.25 47.5312 572.138 48.165 571.931 48.75H580.088C579.869 48.1487 579.755 47.5146 579.75 46.875Z" fill="#3A3EA3"/>
<path d="M85.5 93C85.5 91.0109 86.2902 89.1032 87.6967 87.6967C89.1032 86.2902 91.0109 85.5 93 85.5H123C124.989 85.5 126.897 86.2902 128.303 87.6967C129.71 89.1032 130.5 91.0109 130.5 93V115.5C130.5 117.489 129.71 119.397 128.303 120.803C126.897 122.21 124.989 123 123 123H115.5V124.875C115.5 125.372 115.698 125.849 116.049 126.201C116.401 126.552 116.878 126.75 117.375 126.75H119.25C119.747 126.75 120.224 126.948 120.576 127.299C120.927 127.651 121.125 128.128 121.125 128.625C121.125 129.122 120.927 129.599 120.576 129.951C120.224 130.302 119.747 130.5 119.25 130.5H96.75C96.2527 130.5 95.7758 130.302 95.4242 129.951C95.0725 129.599 94.875 129.122 94.875 128.625C94.875 128.128 95.0725 127.651 95.4242 127.299C95.7758 126.948 96.2527 126.75 96.75 126.75H98.625C99.1223 126.75 99.5992 126.552 99.9508 126.201C100.302 125.849 100.5 125.372 100.5 124.875V123H93C91.0109 123 89.1032 122.21 87.6967 120.803C86.2902 119.397 85.5 117.489 85.5 115.5V93ZM89.25 115.5C89.25 116.495 89.6451 117.448 90.3483 118.152C91.0516 118.855 92.0054 119.25 93 119.25H123C123.995 119.25 124.948 118.855 125.652 118.152C126.355 117.448 126.75 116.495 126.75 115.5H89.25ZM126.75 111.75V93C126.75 92.0054 126.355 91.0516 125.652 90.3483C124.948 89.6451 123.995 89.25 123 89.25H93C92.0054 89.25 91.0516 89.6451 90.3483 90.3483C89.6451 91.0516 89.25 92.0054 89.25 93V111.75H126.75ZM111.75 124.875V123H104.25V124.875C104.25 125.531 104.138 126.165 103.931 126.75H112.088C111.869 126.149 111.755 125.515 111.75 124.875Z" fill="#3A3EA3"/>
<path d="M397.5 171C397.5 169.011 398.29 167.103 399.697 165.697C401.103 164.29 403.011 163.5 405 163.5H435C436.989 163.5 438.897 164.29 440.303 165.697C441.71 167.103 442.5 169.011 442.5 171V193.5C442.5 195.489 441.71 197.397 440.303 198.803C438.897 200.21 436.989 201 435 201H427.5V202.875C427.5 203.372 427.698 203.849 428.049 204.201C428.401 204.552 428.878 204.75 429.375 204.75H431.25C431.747 204.75 432.224 204.948 432.576 205.299C432.927 205.651 433.125 206.128 433.125 206.625C433.125 207.122 432.927 207.599 432.576 207.951C432.224 208.302 431.747 208.5 431.25 208.5H408.75C408.253 208.5 407.776 208.302 407.424 207.951C407.073 207.599 406.875 207.122 406.875 206.625C406.875 206.128 407.073 205.651 407.424 205.299C407.776 204.948 408.253 204.75 408.75 204.75H410.625C411.122 204.75 411.599 204.552 411.951 204.201C412.302 203.849 412.5 203.372 412.5 202.875V201H405C403.011 201 401.103 200.21 399.697 198.803C398.29 197.397 397.5 195.489 397.5 193.5V171ZM401.25 193.5C401.25 194.495 401.645 195.448 402.348 196.152C403.052 196.855 404.005 197.25 405 197.25H435C435.995 197.25 436.948 196.855 437.652 196.152C438.355 195.448 438.75 194.495 438.75 193.5H401.25ZM438.75 189.75V171C438.75 170.005 438.355 169.052 437.652 168.348C436.948 167.645 435.995 167.25 435 167.25H405C404.005 167.25 403.052 167.645 402.348 168.348C401.645 169.052 401.25 170.005 401.25 171V189.75H438.75ZM423.75 202.875V201H416.25V202.875C416.25 203.531 416.138 204.165 415.931 204.75H424.088C423.869 204.149 423.755 203.515 423.75 202.875Z" fill="#3A3EA3"/>
<path d="M650.25 38.75C650.25 39.675 650 40.5 649.55 41.25C648.7 39.775 647.1 38.75 645.25 38.75C643.4 38.75 641.8 39.775 640.95 41.25C640.525 40.5 640.25 39.675 640.25 38.75C640.25 36 642.5 33.75 645.25 33.75C648 33.75 650.25 36 650.25 38.75ZM681.5 37.5V45C681.5 46.375 680.375 47.5 679 47.5H676.5V50C676.5 52.775 674.275 55 671.5 55H636.5C635.174 55 633.902 54.4732 632.964 53.5355C632.027 52.5979 631.5 51.3261 631.5 50V47.5H629C627.625 47.5 626.5 46.375 626.5 45V37.5C626.5 36.125 627.625 35 629 35H631.5C631.5 25.325 639.325 17.5 649 17.5H651.5V14.325C650 13.475 649 11.85 649 10C649 7.25 651.25 5 654 5C656.75 5 659 7.25 659 10C659 11.85 658 13.475 656.5 14.325V17.5H659C668.675 17.5 676.5 25.325 676.5 35H679C680.375 35 681.5 36.125 681.5 37.5ZM676.5 40H671.5V35C671.5 28.1 665.9 22.5 659 22.5H649C642.1 22.5 636.5 28.1 636.5 35V40H631.5V42.5H636.5V50H671.5V42.5H676.5V40ZM662.75 33.75C660 33.75 657.75 36 657.75 38.75C657.75 39.675 658.025 40.5 658.45 41.25C659.3 39.775 660.9 38.75 662.75 38.75C664.6 38.75 666.2 39.775 667.05 41.25C667.5 40.5 667.75 39.675 667.75 38.75C667.75 37.4239 667.223 36.1521 666.286 35.2145C665.348 34.2768 664.076 33.75 662.75 33.75Z" fill="#3A3EA3"/>
<path d="M182.25 116.75C182.25 117.675 182 118.5 181.55 119.25C180.7 117.775 179.1 116.75 177.25 116.75C175.4 116.75 173.8 117.775 172.95 119.25C172.525 118.5 172.25 117.675 172.25 116.75C172.25 114 174.5 111.75 177.25 111.75C180 111.75 182.25 114 182.25 116.75ZM213.5 115.5V123C213.5 124.375 212.375 125.5 211 125.5H208.5V128C208.5 130.775 206.275 133 203.5 133H168.5C167.174 133 165.902 132.473 164.964 131.536C164.027 130.598 163.5 129.326 163.5 128V125.5H161C159.625 125.5 158.5 124.375 158.5 123V115.5C158.5 114.125 159.625 113 161 113H163.5C163.5 103.325 171.325 95.5 181 95.5H183.5V92.325C182 91.475 181 89.85 181 88C181 85.25 183.25 83 186 83C188.75 83 191 85.25 191 88C191 89.85 190 91.475 188.5 92.325V95.5H191C200.675 95.5 208.5 103.325 208.5 113H211C212.375 113 213.5 114.125 213.5 115.5ZM208.5 118H203.5V113C203.5 106.1 197.9 100.5 191 100.5H181C174.1 100.5 168.5 106.1 168.5 113V118H163.5V120.5H168.5V128H203.5V120.5H208.5V118ZM194.75 111.75C192 111.75 189.75 114 189.75 116.75C189.75 117.675 190.025 118.5 190.45 119.25C191.3 117.775 192.9 116.75 194.75 116.75C196.6 116.75 198.2 117.775 199.05 119.25C199.5 118.5 199.75 117.675 199.75 116.75C199.75 115.424 199.223 114.152 198.286 113.214C197.348 112.277 196.076 111.75 194.75 111.75Z" fill="#3A3EA3"/>
<path d="M26.25 194.75C26.25 195.675 26 196.5 25.55 197.25C24.7 195.775 23.1 194.75 21.25 194.75C19.4 194.75 17.8 195.775 16.95 197.25C16.525 196.5 16.25 195.675 16.25 194.75C16.25 192 18.5 189.75 21.25 189.75C24 189.75 26.25 192 26.25 194.75ZM57.5 193.5V201C57.5 202.375 56.375 203.5 55 203.5H52.5V206C52.5 208.775 50.275 211 47.5 211H12.5C11.1739 211 9.90215 210.473 8.96447 209.536C8.02678 208.598 7.5 207.326 7.5 206V203.5H5C3.625 203.5 2.5 202.375 2.5 201V193.5C2.5 192.125 3.625 191 5 191H7.5C7.5 181.325 15.325 173.5 25 173.5H27.5V170.325C26 169.475 25 167.85 25 166C25 163.25 27.25 161 30 161C32.75 161 35 163.25 35 166C35 167.85 34 169.475 32.5 170.325V173.5H35C44.675 173.5 52.5 181.325 52.5 191H55C56.375 191 57.5 192.125 57.5 193.5ZM52.5 196H47.5V191C47.5 184.1 41.9 178.5 35 178.5H25C18.1 178.5 12.5 184.1 12.5 191V196H7.5V198.5H12.5V206H47.5V198.5H52.5V196ZM38.75 189.75C36 189.75 33.75 192 33.75 194.75C33.75 195.675 34.025 196.5 34.45 197.25C35.3 195.775 36.9 194.75 38.75 194.75C40.6 194.75 42.2 195.775 43.05 197.25C43.5 196.5 43.75 195.675 43.75 194.75C43.75 193.424 43.2232 192.152 42.2855 191.214C41.3479 190.277 40.0761 189.75 38.75 189.75Z" fill="#3A3EA3"/>
<path d="M714.825 7.52C715.262 6.75473 715.894 6.1186 716.656 5.67605C717.418 5.23351 718.284 5.00028 719.165 5H744.835C745.716 5.00028 746.582 5.23351 747.344 5.67605C748.106 6.1186 748.738 6.75473 749.175 7.52L752.033 12.52C753.653 15.355 752.155 18.7775 749.307 19.7375C749.32 19.9425 749.317 20.1475 749.302 20.355L747.16 50.355C747.07 51.6165 746.506 52.797 745.58 53.6589C744.655 54.5208 743.437 55 742.172 55H721.825C720.56 55 719.343 54.5208 718.417 53.6589C717.492 52.797 716.927 51.6165 716.837 50.355L714.695 20.355C714.68 20.1495 714.677 19.9433 714.687 19.7375C711.842 18.7775 710.345 15.355 711.962 12.52L714.823 7.52H714.825ZM719.685 20L720.22 27.5H743.78L744.315 20H719.685ZM721.292 42.5L721.828 50H742.172L742.708 42.5H721.292ZM747.692 15L744.835 10H719.165L716.307 15H747.692Z" fill="#3A3EA3"/>
<path d="M246.825 85.52C247.262 84.7547 247.894 84.1186 248.656 83.6761C249.418 83.2335 250.284 83.0003 251.165 83H276.835C277.716 83.0003 278.582 83.2335 279.344 83.6761C280.106 84.1186 280.738 84.7547 281.175 85.52L284.033 90.52C285.653 93.355 284.155 96.7775 281.307 97.7375C281.32 97.9425 281.317 98.1475 281.302 98.355L279.16 128.355C279.07 129.616 278.506 130.797 277.58 131.659C276.655 132.521 275.437 133 274.172 133H253.825C252.56 133 251.343 132.521 250.417 131.659C249.492 130.797 248.927 129.616 248.837 128.355L246.695 98.355C246.68 98.1495 246.677 97.9433 246.687 97.7375C243.842 96.7775 242.345 93.355 243.962 90.52L246.822 85.52H246.825ZM251.685 98L252.22 105.5H275.78L276.315 98H251.685ZM253.292 120.5L253.827 128H274.172L274.708 120.5H253.292ZM279.692 93L276.835 88H251.165L248.307 93H279.692Z" fill="#3A3EA3"/>
<path d="M90.825 163.52C91.2621 162.755 91.8938 162.119 92.6559 161.676C93.4181 161.234 94.2837 161 95.165 161H120.835C121.716 161 122.582 161.234 123.344 161.676C124.106 162.119 124.738 162.755 125.175 163.52L128.033 168.52C129.653 171.355 128.155 174.778 125.307 175.738C125.32 175.943 125.317 176.148 125.302 176.355L123.16 206.355C123.07 207.616 122.506 208.797 121.58 209.659C120.655 210.521 119.437 211 118.172 211H97.825C96.5603 211 95.3427 210.521 94.4172 209.659C93.4918 208.797 92.9273 207.616 92.8375 206.355L90.695 176.355C90.6799 176.15 90.6774 175.943 90.6875 175.738C87.8425 174.778 86.345 171.355 87.9625 168.52L90.8225 163.52H90.825ZM95.685 176L96.22 183.5H119.78L120.315 176H95.685ZM97.2925 198.5L97.8275 206H118.172L118.708 198.5H97.2925ZM123.692 171L120.835 166H95.165L92.3075 171H123.692Z" fill="#3A3EA3"/>
<path d="M810 5C807.528 5 805.111 5.73311 803.055 7.10663C801 8.48015 799.398 10.4324 798.452 12.7165C797.505 15.0005 797.258 17.5139 797.74 19.9386C798.222 22.3634 799.413 24.5907 801.161 26.3388C802.909 28.087 805.137 29.2775 807.561 29.7598C809.986 30.2421 812.499 29.9946 814.784 29.0485C817.068 28.1024 819.02 26.5002 820.393 24.4446C821.767 22.389 822.5 19.9723 822.5 17.5C822.5 14.1848 821.183 11.0054 818.839 8.66117C816.495 6.31696 813.315 5 810 5ZM810 25C808.517 25 807.067 24.5601 805.833 23.736C804.6 22.9119 803.639 21.7406 803.071 20.3701C802.503 18.9997 802.355 17.4917 802.644 16.0368C802.933 14.582 803.648 13.2456 804.697 12.1967C805.746 11.1478 807.082 10.4335 808.537 10.1441C809.992 9.85472 811.5 10.0032 812.87 10.5709C814.241 11.1386 815.412 12.0999 816.236 13.3332C817.06 14.5666 817.5 16.0166 817.5 17.5C817.5 19.4891 816.71 21.3968 815.303 22.8033C813.897 24.2098 811.989 25 810 25ZM832.5 52.5V50C832.5 45.3587 830.656 40.9075 827.374 37.6256C824.092 34.3437 819.641 32.5 815 32.5H805C800.359 32.5 795.908 34.3437 792.626 37.6256C789.344 40.9075 787.5 45.3587 787.5 50V52.5H792.5V50C792.5 46.6848 793.817 43.5054 796.161 41.1612C798.505 38.817 801.685 37.5 805 37.5H815C818.315 37.5 821.495 38.817 823.839 41.1612C826.183 43.5054 827.5 46.6848 827.5 50V52.5H832.5Z" fill="#3A3EA3"/>
<path d="M342 83C339.528 83 337.111 83.7331 335.055 85.1066C333 86.4801 331.398 88.4324 330.452 90.7165C329.505 93.0005 329.258 95.5139 329.74 97.9386C330.222 100.363 331.413 102.591 333.161 104.339C334.909 106.087 337.137 107.278 339.561 107.76C341.986 108.242 344.499 107.995 346.784 107.048C349.068 106.102 351.02 104.5 352.393 102.445C353.767 100.389 354.5 97.9723 354.5 95.5C354.5 92.1848 353.183 89.0054 350.839 86.6612C348.495 84.317 345.315 83 342 83ZM342 103C340.517 103 339.067 102.56 337.833 101.736C336.6 100.912 335.639 99.7406 335.071 98.3701C334.503 96.9997 334.355 95.4917 334.644 94.0368C334.933 92.582 335.648 91.2456 336.697 90.1967C337.746 89.1478 339.082 88.4335 340.537 88.1441C341.992 87.8547 343.5 88.0032 344.87 88.5709C346.241 89.1386 347.412 90.0999 348.236 91.3332C349.06 92.5666 349.5 94.0166 349.5 95.5C349.5 97.4891 348.71 99.3968 347.303 100.803C345.897 102.21 343.989 103 342 103ZM364.5 130.5V128C364.5 123.359 362.656 118.908 359.374 115.626C356.092 112.344 351.641 110.5 347 110.5H337C332.359 110.5 327.908 112.344 324.626 115.626C321.344 118.908 319.5 123.359 319.5 128V130.5H324.5V128C324.5 124.685 325.817 121.505 328.161 119.161C330.505 116.817 333.685 115.5 337 115.5H347C350.315 115.5 353.495 116.817 355.839 119.161C358.183 121.505 359.5 124.685 359.5 128V130.5H364.5Z" fill="#3A3EA3"/>
<path d="M186 161C183.528 161 181.111 161.733 179.055 163.107C177 164.48 175.398 166.432 174.452 168.716C173.505 171.001 173.258 173.514 173.74 175.939C174.222 178.363 175.413 180.591 177.161 182.339C178.909 184.087 181.137 185.278 183.561 185.76C185.986 186.242 188.499 185.995 190.784 185.048C193.068 184.102 195.02 182.5 196.393 180.445C197.767 178.389 198.5 175.972 198.5 173.5C198.5 170.185 197.183 167.005 194.839 164.661C192.495 162.317 189.315 161 186 161ZM186 181C184.517 181 183.067 180.56 181.833 179.736C180.6 178.912 179.639 177.741 179.071 176.37C178.503 175 178.355 173.492 178.644 172.037C178.933 170.582 179.648 169.246 180.697 168.197C181.746 167.148 183.082 166.434 184.537 166.144C185.992 165.855 187.5 166.003 188.87 166.571C190.241 167.139 191.412 168.1 192.236 169.333C193.06 170.567 193.5 172.017 193.5 173.5C193.5 175.489 192.71 177.397 191.303 178.803C189.897 180.21 187.989 181 186 181ZM208.5 208.5V206C208.5 201.359 206.656 196.908 203.374 193.626C200.092 190.344 195.641 188.5 191 188.5H181C176.359 188.5 171.908 190.344 168.626 193.626C165.344 196.908 163.5 201.359 163.5 206V208.5H168.5V206C168.5 202.685 169.817 199.505 172.161 197.161C174.505 194.817 177.685 193.5 181 193.5H191C194.315 193.5 197.495 194.817 199.839 197.161C202.183 199.505 203.5 202.685 203.5 206V208.5H208.5Z" fill="#3A3EA3"/>
<path d="M878 45H881.75V40H886.75V36.25H881.75V31.25H878V36.25H873V40H878V45ZM890.5 43.125H903V39.375H890.5V43.125ZM890.5 36.875H903V33.125H890.5V36.875ZM893.25 27.375L896.75 23.875L900.25 27.375L902.875 24.75L899.375 21.125L902.875 17.625L900.25 15L896.75 18.5L893.25 15L890.625 17.625L894.125 21.125L890.625 24.75L893.25 27.375ZM873.625 23H886.125V19.25H873.625V23ZM870.5 52.5C869.125 52.5 867.947 52.0108 866.967 51.0325C865.989 50.0525 865.5 48.875 865.5 47.5V12.5C865.5 11.125 865.989 9.9475 866.967 8.9675C867.947 7.98917 869.125 7.5 870.5 7.5H905.5C906.875 7.5 908.053 7.98917 909.033 8.9675C910.011 9.9475 910.5 11.125 910.5 12.5V47.5C910.5 48.875 910.011 50.0525 909.033 51.0325C908.053 52.0108 906.875 52.5 905.5 52.5H870.5ZM870.5 47.5H905.5V12.5H870.5V47.5ZM870.5 12.5V47.5V12.5Z" fill="#3A3EA3"/>
<path d="M410 123H413.75V118H418.75V114.25H413.75V109.25H410V114.25H405V118H410V123ZM422.5 121.125H435V117.375H422.5V121.125ZM422.5 114.875H435V111.125H422.5V114.875ZM425.25 105.375L428.75 101.875L432.25 105.375L434.875 102.75L431.375 99.125L434.875 95.625L432.25 93L428.75 96.5L425.25 93L422.625 95.625L426.125 99.125L422.625 102.75L425.25 105.375ZM405.625 101H418.125V97.25H405.625V101ZM402.5 130.5C401.125 130.5 399.947 130.011 398.967 129.033C397.989 128.053 397.5 126.875 397.5 125.5V90.5C397.5 89.125 397.989 87.9475 398.967 86.9675C399.947 85.9892 401.125 85.5 402.5 85.5H437.5C438.875 85.5 440.053 85.9892 441.033 86.9675C442.011 87.9475 442.5 89.125 442.5 90.5V125.5C442.5 126.875 442.011 128.053 441.033 129.033C440.053 130.011 438.875 130.5 437.5 130.5H402.5ZM402.5 125.5H437.5V90.5H402.5V125.5ZM402.5 90.5V125.5V90.5Z" fill="#3A3EA3"/>
<path d="M254 201H257.75V196H262.75V192.25H257.75V187.25H254V192.25H249V196H254V201ZM266.5 199.125H279V195.375H266.5V199.125ZM266.5 192.875H279V189.125H266.5V192.875ZM269.25 183.375L272.75 179.875L276.25 183.375L278.875 180.75L275.375 177.125L278.875 173.625L276.25 171L272.75 174.5L269.25 171L266.625 173.625L270.125 177.125L266.625 180.75L269.25 183.375ZM249.625 179H262.125V175.25H249.625V179ZM246.5 208.5C245.125 208.5 243.947 208.011 242.967 207.033C241.989 206.053 241.5 204.875 241.5 203.5V168.5C241.5 167.125 241.989 165.947 242.967 164.967C243.947 163.989 245.125 163.5 246.5 163.5H281.5C282.875 163.5 284.053 163.989 285.033 164.967C286.011 165.947 286.5 167.125 286.5 168.5V203.5C286.5 204.875 286.011 206.053 285.033 207.033C284.053 208.011 282.875 208.5 281.5 208.5H246.5ZM246.5 203.5H281.5V168.5H246.5V203.5ZM246.5 168.5V203.5V168.5Z" fill="#3A3EA3"/>
<path d="M943.5 7.5V47.5C943.5 48.8261 944.027 50.0979 944.964 51.0355C945.902 51.9732 947.174 52.5 948.5 52.5H988.5" stroke="#3A3EA3" stroke-width="2" stroke-miterlimit="5.759" stroke-linecap="round" stroke-linejoin="round"/>
<path d="M953.5 35L963.5 25L973.5 35L988.5 20" stroke="#3A3EA3" stroke-width="2" stroke-miterlimit="5.759" stroke-linecap="round" stroke-linejoin="round"/>
<path d="M981 20H988.5V27.5" stroke="#3A3EA3" stroke-width="2" stroke-linecap="round" stroke-linejoin="round"/>
<path d="M475.5 85.5V125.5C475.5 126.826 476.027 128.098 476.964 129.036C477.902 129.973 479.174 130.5 480.5 130.5H520.5" stroke="#3A3EA3" stroke-width="2" stroke-miterlimit="5.759" stroke-linecap="round" stroke-linejoin="round"/>
<path d="M485.5 113L495.5 103L505.5 113L520.5 98" stroke="#3A3EA3" stroke-width="2" stroke-miterlimit="5.759" stroke-linecap="round" stroke-linejoin="round"/>
<path d="M513 98H520.5V105.5" stroke="#3A3EA3" stroke-width="2" stroke-linecap="round" stroke-linejoin="round"/>
<path d="M787.5 163.5V203.5C787.5 204.826 788.027 206.098 788.964 207.036C789.902 207.973 791.174 208.5 792.5 208.5H832.5" stroke="#3A3EA3" stroke-width="2" stroke-miterlimit="5.759" stroke-linecap="round" stroke-linejoin="round"/>
<path d="M797.5 191L807.5 181L817.5 191L832.5 176" stroke="#3A3EA3" stroke-width="2" stroke-miterlimit="5.759" stroke-linecap="round" stroke-linejoin="round"/>
<path d="M825 176H832.5V183.5" stroke="#3A3EA3" stroke-width="2" stroke-linecap="round" stroke-linejoin="round"/>
<g clip-path="url(#clip0_1_439)">
<path d="M419.783 -0.0715532C419.685 -0.0539299 419.589 -0.0300342 419.495 -1.47596e-05C418.974 0.116758 418.509 0.410578 418.181 0.831375C417.852 1.25217 417.679 1.77391 417.692 2.30768V4.61537H396.923C395.087 4.61537 393.326 5.34476 392.028 6.64309C390.729 7.94142 390 9.70233 390 11.5384V41.5384C390 45.36 393.102 48.4615 396.923 48.4615H417.692V49.3269L405.143 55.6015C404.589 55.8693 404.163 56.3464 403.96 56.9278C403.758 57.5092 403.794 58.1474 404.062 58.7019C404.33 59.2564 404.807 59.6818 405.388 59.8846C405.97 60.0874 406.608 60.0508 407.162 59.7831L417.692 54.5192V55.3846C417.692 55.9966 417.935 56.5836 418.368 57.0164C418.801 57.4492 419.388 57.6923 420 57.6923C420.612 57.6923 421.199 57.4492 421.632 57.0164C422.065 56.5836 422.308 55.9966 422.308 55.3846V54.5192L432.838 59.7831C433.392 60.0508 434.03 60.0874 434.612 59.8846C435.193 59.6818 435.67 59.2564 435.938 58.7019C436.206 58.1474 436.242 57.5092 436.04 56.9278C435.837 56.3464 435.411 55.8693 434.857 55.6015L422.308 49.3269V48.4615H443.077C446.898 48.4615 450 45.36 450 41.5384V11.5384C450 9.70233 449.271 7.94142 447.972 6.64309C446.674 5.34476 444.913 4.61537 443.077 4.61537H422.308V2.30768C422.319 1.97952 422.261 1.65265 422.136 1.34891C422.011 1.04518 421.823 0.771566 421.584 0.546359C421.345 0.321152 421.061 0.149537 420.75 0.0429785C420.44 -0.0635796 420.11 -0.102626 419.783 -0.0715532ZM394.615 11.5384H445.385V41.5384H394.615V11.5384ZM438.173 13.8461C437.656 13.9017 437.173 14.1302 436.802 14.4946L429.231 22.0684L423.967 16.8C423.715 16.5413 423.406 16.3454 423.064 16.2281C422.722 16.1108 422.358 16.0752 422 16.1244C421.642 16.1736 421.301 16.306 421.004 16.5112C420.706 16.7163 420.461 16.9883 420.288 17.3054L413.437 29.2777L410.624 22.2092C410.487 21.8442 410.26 21.5198 409.965 21.2662C409.669 21.0125 409.313 20.838 408.932 20.7587C408.55 20.6794 408.155 20.6981 407.783 20.8129C407.41 20.9277 407.073 21.135 406.802 21.4154L399.879 28.3384C399.661 28.5565 399.488 28.8154 399.37 29.1003C399.252 29.3853 399.191 29.6907 399.191 29.9992C399.191 30.3076 399.251 30.6131 399.369 30.8981C399.487 31.1832 399.66 31.4422 399.878 31.6604C400.096 31.8786 400.355 32.0517 400.64 32.1698C400.925 32.288 401.23 32.3488 401.539 32.3489C401.847 32.349 402.153 32.2884 402.438 32.1704C402.723 32.0525 402.982 31.8796 403.2 31.6615L407.598 27.2631L410.917 35.4831C411.074 35.8953 411.345 36.2541 411.699 36.5168C412.053 36.7796 412.475 36.9354 412.915 36.9657C413.355 36.9961 413.795 36.8997 414.182 36.6881C414.569 36.4764 414.887 36.1584 415.098 35.7715L422.815 22.2854L427.574 27.0461C427.789 27.2688 428.047 27.4458 428.332 27.5667C428.617 27.6876 428.923 27.75 429.233 27.75C429.543 27.75 429.849 27.6876 430.134 27.5667C430.419 27.4458 430.677 27.2688 430.892 27.0461L440.123 17.8154C440.488 17.4779 440.734 17.0318 440.824 16.5434C440.915 16.0549 440.846 15.5503 440.627 15.1044C440.408 14.6585 440.05 14.2952 439.608 14.0685C439.166 13.8418 438.663 13.7638 438.173 13.8461Z" fill="#3A3EA3"/>
</g>
<g clip-path="url(#clip1_1_439)">
<path d="M965.783 77.9284C965.685 77.9461 965.589 77.97 965.495 78C964.974 78.1168 964.509 78.4106 964.181 78.8314C963.852 79.2522 963.679 79.7739 963.692 80.3077V82.6154H942.923C941.087 82.6154 939.326 83.3448 938.028 84.6431C936.729 85.9414 936 87.7023 936 89.5384V119.538C936 123.36 939.102 126.462 942.923 126.462H963.692V127.327L951.143 133.602C950.589 133.869 950.163 134.346 949.96 134.928C949.758 135.509 949.794 136.147 950.062 136.702C950.33 137.256 950.807 137.682 951.388 137.885C951.97 138.087 952.608 138.051 953.162 137.783L963.692 132.519V133.385C963.692 133.997 963.935 134.584 964.368 135.016C964.801 135.449 965.388 135.692 966 135.692C966.612 135.692 967.199 135.449 967.632 135.016C968.065 134.584 968.308 133.997 968.308 133.385V132.519L978.838 137.783C979.392 138.051 980.03 138.087 980.612 137.885C981.193 137.682 981.67 137.256 981.938 136.702C982.206 136.147 982.242 135.509 982.04 134.928C981.837 134.346 981.411 133.869 980.857 133.602L968.308 127.327V126.462H989.077C992.898 126.462 996 123.36 996 119.538V89.5384C996 87.7023 995.271 85.9414 993.972 84.6431C992.674 83.3448 990.913 82.6154 989.077 82.6154H968.308V80.3077C968.319 79.9795 968.261 79.6527 968.136 79.3489C968.011 79.0452 967.823 78.7716 967.584 78.5464C967.345 78.3212 967.061 78.1495 966.75 78.043C966.44 77.9364 966.11 77.8974 965.783 77.9284ZM940.615 89.5384H991.385V119.538H940.615V89.5384ZM984.173 91.8461C983.656 91.9017 983.173 92.1302 982.802 92.4946L975.231 100.068L969.967 94.8C969.715 94.5413 969.406 94.3454 969.064 94.2281C968.722 94.1108 968.358 94.0752 968 94.1244C967.642 94.1736 967.301 94.306 967.004 94.5112C966.706 94.7163 966.461 94.9883 966.288 95.3054L959.437 107.278L956.624 100.209C956.487 99.8442 956.26 99.5198 955.965 99.2662C955.669 99.0125 955.313 98.838 954.932 98.7587C954.55 98.6794 954.155 98.6981 953.783 98.8129C953.41 98.9277 953.073 99.135 952.802 99.4154L945.879 106.338C945.661 106.556 945.488 106.815 945.37 107.1C945.252 107.385 945.191 107.691 945.191 107.999C945.191 108.308 945.251 108.613 945.369 108.898C945.487 109.183 945.66 109.442 945.878 109.66C946.096 109.879 946.355 110.052 946.64 110.17C946.925 110.288 947.23 110.349 947.539 110.349C947.847 110.349 948.153 110.288 948.438 110.17C948.723 110.052 948.982 109.88 949.2 109.662L953.598 105.263L956.917 113.483C957.074 113.895 957.345 114.254 957.699 114.517C958.053 114.78 958.475 114.935 958.915 114.966C959.355 114.996 959.795 114.9 960.182 114.688C960.569 114.476 960.887 114.158 961.098 113.772L968.815 100.285L973.574 105.046C973.789 105.269 974.047 105.446 974.332 105.567C974.617 105.688 974.923 105.75 975.233 105.75C975.543 105.75 975.849 105.688 976.134 105.567C976.419 105.446 976.677 105.269 976.892 105.046L986.123 95.8154C986.488 95.4779 986.734 95.0318 986.824 94.5434C986.915 94.0549 986.846 93.5503 986.627 93.1044C986.408 92.6585 986.05 92.2952 985.608 92.0685C985.166 91.8418 984.663 91.7638 984.173 91.8461Z" fill="#3A3EA3"/>
</g>
<g clip-path="url(#clip2_1_439)">
<path d="M731.783 155.928C731.685 155.946 731.589 155.97 731.495 156C730.974 156.117 730.509 156.411 730.181 156.831C729.852 157.252 729.679 157.774 729.692 158.308V160.615H708.923C707.087 160.615 705.326 161.345 704.028 162.643C702.729 163.941 702 165.702 702 167.538V197.538C702 201.36 705.102 204.462 708.923 204.462H729.692V205.327L717.143 211.602C716.589 211.869 716.163 212.346 715.96 212.928C715.758 213.509 715.794 214.147 716.062 214.702C716.33 215.256 716.807 215.682 717.388 215.885C717.97 216.087 718.608 216.051 719.162 215.783L729.692 210.519V211.385C729.692 211.997 729.935 212.584 730.368 213.016C730.801 213.449 731.388 213.692 732 213.692C732.612 213.692 733.199 213.449 733.632 213.016C734.065 212.584 734.308 211.997 734.308 211.385V210.519L744.838 215.783C745.392 216.051 746.03 216.087 746.612 215.885C747.193 215.682 747.67 215.256 747.938 214.702C748.206 214.147 748.242 213.509 748.04 212.928C747.837 212.346 747.411 211.869 746.857 211.602L734.308 205.327V204.462H755.077C758.898 204.462 762 201.36 762 197.538V167.538C762 165.702 761.271 163.941 759.972 162.643C758.674 161.345 756.913 160.615 755.077 160.615H734.308V158.308C734.319 157.98 734.261 157.653 734.136 157.349C734.011 157.045 733.823 156.772 733.584 156.546C733.345 156.321 733.061 156.15 732.75 156.043C732.44 155.936 732.11 155.897 731.783 155.928ZM706.615 167.538H757.385V197.538H706.615V167.538ZM750.173 169.846C749.656 169.902 749.173 170.13 748.802 170.495L741.231 178.068L735.967 172.8C735.715 172.541 735.406 172.345 735.064 172.228C734.722 172.111 734.358 172.075 734 172.124C733.642 172.174 733.301 172.306 733.004 172.511C732.706 172.716 732.461 172.988 732.288 173.305L725.437 185.278L722.624 178.209C722.487 177.844 722.26 177.52 721.965 177.266C721.669 177.013 721.313 176.838 720.932 176.759C720.55 176.679 720.155 176.698 719.783 176.813C719.41 176.928 719.073 177.135 718.802 177.415L711.879 184.338C711.661 184.557 711.488 184.815 711.37 185.1C711.252 185.385 711.191 185.691 711.191 185.999C711.191 186.308 711.251 186.613 711.369 186.898C711.487 187.183 711.66 187.442 711.878 187.66C712.096 187.879 712.355 188.052 712.64 188.17C712.925 188.288 713.23 188.349 713.539 188.349C713.847 188.349 714.153 188.288 714.438 188.17C714.723 188.053 714.982 187.88 715.2 187.662L719.598 183.263L722.917 191.483C723.074 191.895 723.345 192.254 723.699 192.517C724.053 192.78 724.475 192.935 724.915 192.966C725.355 192.996 725.795 192.9 726.182 192.688C726.569 192.476 726.887 192.158 727.098 191.772L734.815 178.285L739.574 183.046C739.789 183.269 740.047 183.446 740.332 183.567C740.617 183.688 740.923 183.75 741.233 183.75C741.543 183.75 741.849 183.688 742.134 183.567C742.419 183.446 742.677 183.269 742.892 183.046L752.123 173.815C752.488 173.478 752.734 173.032 752.824 172.543C752.915 172.055 752.846 171.55 752.627 171.104C752.408 170.659 752.05 170.295 751.608 170.069C751.166 169.842 750.663 169.764 750.173 169.846Z" fill="#3A3EA3"/>
</g>
<defs>
<clipPath id="clip0_1_439">
<rect width="60" height="60" fill="white" transform="translate(390)"/>
</clipPath>
<clipPath id="clip1_1_439">
<rect width="60" height="60" fill="white" transform="translate(936 78)"/>
</clipPath>
<clipPath id="clip2_1_439">
<rect width="60" height="60" fill="white" transform="translate(702 156)"/>
</clipPath>
</defs>
</svg>
